# AST/ASF file generated using VICON BodyLanguage
# -----------------------------------------------
:version 1.10
:name VICON
:units
  mass 1.0
  length 0.45
  angle deg
:documentation
   .ast/.asf automatically generated from VICON data using
   VICON BodyBuilder and BodyLanguage model FoxedUp or BRILLIANT.MOD
:root
   order TX TY TZ RX RY RZ
   axis XYZ
   position 0 0 0  
   orientation 0 0 0 
:bonedata
  begin
     id 1 
     name lhipjoint
     direction 0.575328 -0.747301 0.332475 
     length 2.40933 
     axis 0 0 0  XYZ
  end
  begin
     id 2 
     name lfemur
     direction 0.34202 -0.939693 0  
     length 7.31453  
     axis 0 0 20  XYZ
    dof rx ry rz
    limits (-160.0 20.0)
           (-70.0 70.0)
           (-60.0 70.0)
  end
  begin
     id 3 
     name ltibia
     direction 0.34202 -0.939693 0   
     length 7.82185   
     axis 0 0 20   XYZ
    dof rx
    limits (-10.0 170.0)
  end
  begin
     id 4 
     name lfoot
     direction 0.0795993 -0.218697 0.972541   
     length 2.19173   
     axis -90 7.62852e-016 20   XYZ
    dof rx rz
    limits (-45.0 90.0)
           (-70.0 20.0)
  end
  begin
     id 5 
     name ltoes
     direction 1.53537e-011 -4.21894e-011 1   
     length 1.10023   
     axis -90 7.62852e-016 20   XYZ
    dof rx
    limits (-90.0 20.0)
  end
  begin
     id 6 
     name rhipjoint
     direction -0.513884 -0.783789 0.348708   
     length 2.29716  
     axis 0 0 0  XYZ 
  end
  begin
     id 7 
     name rfemur
     direction -0.34202 -0.939693 0   
     length 7.59573   
     axis 0 0 -20   XYZ
    dof rx ry rz
    limits (-160.0 20.0)
           (-70.0 70.0)
           (-70.0 60.0)
  end
  begin
     id 8 
     name rtibia
     direction -0.34202 -0.939693 0   
     length 7.66402   
     axis 0 0 -20   XYZ
    dof rx
    limits (-10.0 170.0)
 end
 begin
     id 9 
     name rfoot
     direction -0.137793 -0.378584 0.915253   
     length 2.27056  
     axis -90 -7.62852e-016 -20   XYZ
    dof rx rz
    limits (-45.0 90.0)
           (-20.0 70.0)
  end
  begin
     id 10 
     name rtoes
     direction -1.53493e-011 -4.22159e-011 1   
     length 1.11766   
     axis -90 -7.62852e-016 -20   XYZ
    dof rx
    limits (-90.0 20.0)
  end
  begin
     id 11 
     name lowerback
     direction -0.00732775 0.998356 -0.05685   
     length 2.16513   
     axis 0 0 0   XYZ
    dof rx ry rz
    limits (-20.0 45.0)
           (-30.0 30.0)
           (-30.0 30.0)
  end
  begin
     id 12 
     name upperback
     direction 0.0218081 0.999627 -0.0164647   
     length 2.16755   
     axis 0 0 0   XYZ
    dof rx ry rz
    limits (-20.0 45.0)
           (-30.0 30.0)
           (-30.0 30.0)
  end
  begin
     id 13 
     name thorax
     direction 0.02365 0.999661 0.0108914   
     length 2.16932   
     axis 0 0 0   XYZ
    dof rx ry rz
    limits (-20.0 45.0)
           (-30.0 30.0)
           (-30.0 30.0)
  end
  begin
     id 14 
     name lowerneck
     direction -0.0523929 0.978385 0.200044   
     length 1.63877   
     axis 0 0 0   XYZ
    dof rx ry rz
    limits (-20.0 45.0)
           (-30.0 30.0)
           (-30.0 30.0)
  end
  begin
     id 15 
     name upperneck
     direction 0.0448674 0.981321 -0.187074   
     length 1.69014   
     axis 0 0 0   XYZ
    dof rx ry rz
    limits (-20.0 45.0)
           (-30.0 30.0)
           (-30.0 30.0)
  end
  begin
     id 16
     name head
     direction 0.0199089 0.996118 -0.0857429  
     length 1.70094  
     axis 0 0 0   XYZ
    dof rx ry rz
    limits (-20.0 45.0)
           (-30.0 30.0)
           (-30.0 30.0)
  end
  begin
     id 17 
     name lclavicle
     direction 0.940366 0.30191 -0.156722  
     length 3.37521  
     axis 0 0 0   XYZ
    dof ry rz
    limits (-20.0 10.0)
           (0.0 20.0)
  end
  begin
     id 18 
     name lhumerus
     direction 1 -4.4897e-011 -1.7911e-027   
     length 5.25287   
     axis 180 -30 -90   XYZ
    dof rx ry rz
    limits (-60.0 90.0)
           (-90.0 90.0)
           (-90.0 90.0)
  end
  begin
     id 19
     name lradius
     direction 1 -4.48951e-011 1.04424e-027   
     length 3.51014   
     axis 180 -30 -90   XYZ
    dof rx
    limits (-10.0 170.0)
  end
  begin
     id 20
     name lwrist
     direction 1 -4.48997e-011 -9.5942e-028   
     length 1.75507   
     axis 8.48502e-016 90 90   XYZ
    dof ry
    limits (-180.0 0.0)
 end
  begin
     id 21 
     name lhand
     direction 1 -4.48831e-011 -1.90777e-027   
     length 0.706179   
     axis 1.22306e-015 90 90   XYZ
    dof rx rz
    limits (-90.0 90.0)
           (-45.0 45.0)
  end
  begin
     id 22 
     name lfingers
     direction 1 -4.49108e-011 -3.85244e-027   
     length 0.569339   
     axis 2.44611e-015 90 90   XYZ
    dof rx
    limits (0.0 90.0)
  end
  begin
     id 23
     name lthumb
     direction 0.707107 -6.34953e-011 0.707107   
     length 0.817461   
     axis -90 45 -1.62303e-014   XYZ
    dof rx rz
    limits (-45.0 45.0)
           (-45.0 45.0)
  end
  begin
     id 24 
     name rclavicle
     direction -0.905329 0.382405 -0.184787   
     length 3.30787  
     axis 0 0 0   XYZ 
    dof ry rz
    limits (-10.0 20.0)
           (-20.0 0.0)
  end
  begin
     id 25 
     name rhumerus
     direction -1 -4.48953e-011 -9.15316e-029  
     length 5.28721   
     axis 180 30 90   XYZ
    dof rx ry rz
    limits (-90.0 60.0)
           (-90.0 90.0)
           (-90.0 90.0)
  end
  begin
     id 26 
     name rradius
     direction -1 -4.48987e-011 9.37824e-028   
     length 3.50544   
     axis 180 30 90   XYZ
    dof rx
    limits (-10.0 170.0)
  end
  begin
     id 27 
     name rwrist
     direction -1 -4.48967e-011 -9.58414e-028   
     length 1.75272   
     axis 8.48502e-016 -90 -90   XYZ
    dof ry
    limits (-180.0 0.0)
  end
  begin
     id 28
     name rhand
     direction -1 -4.48904e-011 -1.91266e-027   
     length 0.884996   
     axis 1.22306e-015 -90 -90   XYZ
    dof rx rz
    limits (-90.0 90.0)
           (-45.0 45.0)
  end
  begin
     id 29
     name rfingers
     direction -1 -4.4909e-011 -3.85015e-027   
     length 0.713507   
     axis 2.44611e-015 -90 -90   XYZ
    dof rx
    limits (0.0 90.0)
  end
  begin
     id 30
     name rthumb
     direction -0.707107 -6.34853e-011 0.707107   
     length 1.02446   
     axis -90 -45 1.62303e-014   XYZ
    dof rx rz
    limits (-45.0 45.0)
           (-45.0 45.0)
  end
:hierarchy
  begin
    root lhipjoint rhipjoint lowerback
    lhipjoint lfemur
    lfemur ltibia
    ltibia lfoot
    lfoot ltoes
    rhipjoint rfemur
    rfemur rtibia
    rtibia rfoot
    rfoot rtoes
    lowerback upperback
    upperback thorax
    thorax lowerneck lclavicle rclavicle
    lowerneck upperneck
    upperneck head
    lclavicle lhumerus
    lhumerus lradius
    lradius lwrist
    lwrist lhand lthumb
    lhand lfingers
    rclavicle rhumerus
    rhumerus rradius
    rradius rwrist
    rwrist rhand rthumb
    rhand rfingers
  end

#!OML:ASF F:\twosubjects\two\Thursday\Session 1\justin.ASF
:FULLY-SPECIFIED
:DEGREES
177
root 9.62197 17.8003 2.67308 7.97289 -10.3682 -4.66334
lowerback 4.46478 -0.395741 1.28343
upperback 0.458387 -0.395188 3.49573
thorax -2.01695 -0.198256 2.90316
lowerneck -20.2416 -4.50482 -11.1054
upperneck 18.4836 -4.09095 5.55406
head 9.53574 -2.0746 3.1768
rclavicle 3.49861e-014 8.34896e-015
rhumerus -19.6326 29.5116 -78.1395
rradius 126.682
rwrist 22.9928
rhand -38.5649 48.96
rfingers 7.12502
rthumb -11.5841 19.3002
lclavicle 3.49861e-014 8.34896e-015
lhumerus -35.7048 20.2644 71.5618
lradius 31.1429
lwrist -16.2925
lhand 0.304658 37.2095
lfingers 7.12502
lthumb 25.8822 65.468
rfemur 1.44712 -0.426792 21.0281
rtibia 20.0987
rfoot -23.2161 -15.0438
rtoes -26.18
lfemur -29.2804 7.22155 -4.10681
ltibia 26.0255
lfoot -9.49219 7.20705
ltoes -14.3379
178
root 9.6876 17.7776 2.7967 7.93663 -9.96063 -5.04865
lowerback 4.7 -0.237978 1.882
upperback 0.437678 -0.143887 3.52872
thorax -2.18191 -0.0776704 2.58702
lowerneck -20.2484 -4.99229 -11.5118
upperneck 18.5813 -4.75277 6.02475
head 9.65562 -2.35873 3.31282
rclavicle -1.56046e-014 3.97569e-015
rhumerus -20.9163 30.0408 -79.6083
rradius 126.333
rwrist 22.719
rhand -37.9383 48.2168
rfingers 7.12502
rthumb -10.9798 18.5239
lclavicle -1.56046e-014 3.97569e-015
lhumerus -35.6324 19.7842 71.8704
lradius 31.2814
lwrist -16.2128
lhand 1.4217 37.4742
lfingers 7.12502
lthumb 26.9514 65.5721
rfemur 2.22155 -0.105984 21.2772
rtibia 19.6468
rfoot -22.6786 -15.5424
rtoes -25.333
lfemur -29.5874 7.81155 -4.37805
ltibia 26.8343
lfoot -9.30289 6.83237
ltoes -15.9372
179
root 9.75585 17.7573 2.92008 8.10502 -9.64239 -5.15794
lowerback 4.39636 -0.174603 2.0415
upperback 0.555646 -0.0690463 3.5489
thorax -1.89278 -0.0413903 2.51049
lowerneck -20.0764 -5.40895 -12.0794
upperneck 18.122 -5.32015 6.71031
head 9.55517 -2.58092 3.56022
rclavicle 1.53064e-014 3.29983e-014
rhumerus -21.6363 30.9047 -80.5553
rradius 126.062
rwrist 21.2719
rhand -37.2326 47.6365
rfingers 7.12502
rthumb -10.299 17.9087
lclavicle 1.53064e-014 3.29983e-014
lhumerus -35.4099 19.5132 72.2069
lradius 31.5685
lwrist -15.7758
lhand 1.33652 37.3816
lfingers 7.12502
lthumb 26.8699 65.4921
rfemur 2.63042 -0.226243 21.1644
rtibia 19.0233
rfoot -20.9402 -16.0441
rtoes -27.9949
lfemur -30.1933 8.12098 -4.84418
ltibia 27.9173
lfoot -8.78798 6.21318
ltoes -17.2407
180
root 9.83441 17.7414 3.0452 8.14112 -9.29525 -4.92478
lowerback 4.0587 -0.175496 1.91505
upperback 0.812631 -0.102122 3.49569
thorax -1.43822 -0.0569442 2.52481
lowerneck -20.147 -5.8124 -12.1797
upperneck 17.5568 -5.835 6.79687
head 9.42887 -2.80742 3.52159
rclavicle 1.23246e-014 3.65764e-014
rhumerus -21.8566 32.0896 -81.274
rradius 125.551
rwrist 19.8068
rhand -37.2303 46.5517
rfingers 7.12502
rthumb -10.2968 16.8238
lclavicle 1.23246e-014 3.65764e-014
lhumerus -34.9775 19.6044 72.5476
lradius 31.7197
lwrist -15.7143
lhand 0.0890299 36.8732
lfingers 7.12502
lthumb 25.6756 65.1617
rfemur 2.88968 -0.801614 20.6526
rtibia 18.6737
rfoot -18.4629 -16.5426
rtoes -34.2833
lfemur -30.5838 7.93498 -5.51884
ltibia 28.9672
lfoot -8.25874 5.23917
ltoes -15.5114
181
root 9.91812 17.7255 3.17758 7.96045 -8.89742 -4.8067
lowerback 4.08243 -0.0949218 2.07413
upperback 0.996746 0.00406467 3.39526
thorax -1.26539 -0.00428184 2.32542
lowerneck -20.5413 -6.36176 -11.9175
upperneck 17.7235 -6.54286 6.41114
head 9.60711 -3.15431 3.22806
rclavicle -4.87022e-015 7.95139e-015
rhumerus -22.2945 32.7995 -82.1802
rradius 124.553
rwrist 18.9053
rhand -37.3961 47.1844
rfingers 7.12502
rthumb -10.4567 17.4645
lclavicle -4.87022e-015 7.95139e-015
lhumerus -34.6356 19.5226 72.8063
lradius 31.8572
lwrist -16.1726
lhand 0.00720174 36.2366
lfingers 7.12502
lthumb 25.5973 64.5363
rfemur 3.50962 -1.1594 20.2774
rtibia 18.4824
rfoot -17.6213 -16.8873
rtoes -36.8739
lfemur -30.6007 7.3493 -5.79634
ltibia 29.9972
lfoot -8.15651 4.34905
ltoes -10.2758
182
root 9.99138 17.7048 3.31136 7.81249 -8.62329 -4.70296
lowerback 4.23771 0.0254334 2.07646
upperback 0.970632 0.171921 3.34054
thorax -1.3832 0.0794462 2.25928
lowerneck -20.4446 -6.83984 -12.0786
upperneck 17.9035 -7.19861 6.50631
head 9.72979 -3.46179 3.18638
rclavicle -1.22253e-014 -1.39149e-014
rhumerus -23.4306 33.3321 -83.3002
rradius 123.532
rwrist 18.1147
rhand -36.8884 46.9573
rfingers 7.12502
rthumb -9.96701 17.2133
lclavicle -1.22253e-014 -1.39149e-014
lhumerus -34.9658 19.5423 72.871
lradius 32.5047
lwrist -16.9422
lhand 1.01856 35.7949
lfingers 7.12502
lthumb 26.5656 63.9518
rfemur 4.75334 -0.485129 19.8517
rtibia 18.4495
rfoot -19.8013 -15.7997
rtoes -30.3752
lfemur -30.5855 6.89496 -5.97694
ltibia 31.0254
lfoot -8.6262 3.82476
ltoes -6.16212
183
root 10.0682 17.6928 3.44483 7.67354 -8.31304 -4.55273
lowerback 4.78401 0.125983 2.1953
upperback 0.636858 0.346728 3.17808
thorax -2.03485 0.164159 2.01555
lowerneck -19.7656 -7.23615 -12.4347
upperneck 17.8831 -7.83063 6.93473
head 9.70077 -3.74532 3.3076
rclavicle -2.04748e-014 3.77691e-014
rhumerus -25.3087 33.6885 -84.8918
rradius 122.681
rwrist 17.3026
rhand -36.2039 46.0035
rfingers 7.12502
rthumb -9.30656 16.2289
lclavicle -2.04748e-014 3.77691e-014
lhumerus -35.7442 19.0804 72.8184
lradius 33.1648
lwrist -17.2271
lhand 1.75326 35.7919
lfingers 7.12502
lthumb 27.2686 63.8404
rfemur 4.76233 -1.23323 19.3917
rtibia 18.7563
rfoot -17.9209 -16.4906
rtoes -36.397
lfemur -30.6983 6.71368 -6.47208
ltibia 31.9712
lfoot -8.9812 3.67981
ltoes -7.56225
184
root 10.1581 17.6905 3.58695 7.55696 -7.98551 -4.19158
lowerback 5.08148 0.18852 2.24132
upperback 0.464317 0.446701 2.90912
thorax -2.37847 0.211413 1.70524
lowerneck -19.3302 -7.67348 -12.8324
upperneck 17.747 -8.53505 7.63281
head 9.70254 -4.03099 3.51427
rclavicle 3.52843e-014 1.07344e-014
rhumerus -26.6139 33.8376 -86.3345
rradius 121.706
rwrist 16.4828
rhand -35.0176 45.3187
rfingers 7.12502
rthumb -8.16176 15.4963
lclavicle 3.52843e-014 1.07344e-014
lhumerus -36.0269 18.6484 72.8217
lradius 33.4629
lwrist -16.9244
lhand 1.52927 35.7226
lfingers 7.12502
lthumb 27.0543 63.8046
rfemur 4.78995 -1.72624 18.6176
rtibia 19.3017
rfoot -17.22 -16.9817
rtoes -39.7541
lfemur -30.9907 6.52715 -7.34776
ltibia 32.8654
lfoot -8.88137 3.66125
ltoes -8.68837
185
root 10.2474 17.6851 3.72901 7.60552 -7.68883 -3.68087
lowerback 4.56831 0.161163 1.82962
upperback 0.747296 0.3552 2.78137
thorax -1.80011 0.171077 1.81067
lowerneck -19.2917 -8.05959 -13.2368
upperneck 17.1661 -9.10219 8.41239
head 9.61597 -4.23352 3.76055
rclavicle -1.19271e-014 3.97569e-016
rhumerus -26.8908 34.2237 -86.9712
rradius 120.638
rwrist 15.7359
rhand -33.6205 44.9853
rfingers 7.12502
rthumb -6.81323 15.1149
lclavicle -1.19271e-014 3.97569e-016
lhumerus -35.6855 19.3078 72.9069
lradius 33.733
lwrist -16.9529
lhand 2.92345 36.4014
lfingers 7.12502
lthumb 28.3874 64.2688
rfemur 4.89232 -1.73675 17.6786
rtibia 19.771
rfoot -17.1315 -17.4278
rtoes -40.0083
lfemur -31.4017 6.37022 -8.32969
ltibia 33.7724
lfoot -8.98919 3.20823
ltoes -8.64345
186
root 10.3281 17.6809 3.8665 7.65585 -7.32021 -3.28701
lowerback 3.84345 0.113391 1.35231
upperback 1.24985 0.229077 2.77296
thorax -0.878006 0.110418 2.07713
lowerneck -19.5066 -8.48215 -13.6151
upperneck 16.5635 -9.66826 9.12342
head 9.5699 -4.43553 3.9704
rclavicle 1.08338e-014 -1.27222e-014
rhumerus -26.603 34.5745 -87.1004
rradius 119.269
rwrist 15.5935
rhand -32.7183 44.3047
rfingers 7.12502
rthumb -5.94225 14.408
lclavicle 1.08338e-014 -1.27222e-014
lhumerus -35.0119 20.2554 73.1236
lradius 34.0255
lwrist -17.2901
lhand 5.82834 38.4256
lfingers 7.12502
lthumb 31.1597 65.7965
rfemur 4.81701 -1.64397 16.9633
rtibia 20.4642
rfoot -16.3814 -17.9031
rtoes -40.172
lfemur -31.6761 6.11582 -9.10229
ltibia 34.6538
lfoot -9.57574 2.32851
ltoes -8.75698
187
root 10.3985 17.6672 4.00673 7.32716 -7.08005 -3.4049
lowerback 4.05037 0.257631 1.59018
upperback 1.4499 0.429304 2.66614
thorax -0.79104 0.21064 1.8241
lowerneck -19.2743 -9.03234 -14.0809
upperneck 16.3108 -10.528 10.07
head 9.63321 -4.77048 4.23966
rclavicle -1.0635e-014 -1.98785e-015
rhumerus -27.0046 34.1779 -87.9255
rradius 117.636
rwrist 15.9316
rhand -31.3116 42.4489
rfingers 7.12502
rthumb -4.58404 12.5185
lclavicle -1.0635e-014 -1.98785e-015
lhumerus -34.8767 20.0554 73.1675
lradius 34.5133
lwrist -17.2168
lhand 4.23393 36.3046
lfingers 7.12502
lthumb 29.639 63.9567
rfemur 5.04535 -0.805576 17.047
rtibia 21.4715
rfoot -15.8657 -18.4497
rtoes -39.915
lfemur -31.3947 5.83014 -9.07634
ltibia 35.4676
lfoot -10.2387 1.31096
ltoes -6.07176
188
root 10.476 17.6461 4.1509 7.07992 -6.77178 -3.36561
lowerback 4.66672 0.433609 1.89933
upperback 1.12292 0.705545 2.38054
thorax -1.46944 0.346576 1.3379
lowerneck -18.2556 -9.44863 -14.1991
upperneck 16.0181 -11.3302 10.642
head 9.50223 -5.12532 4.35012
rclavicle -2.21645e-014 -9.14409e-015
rhumerus -28.7443 33.3634 -89.4598
rradius 116.301
rwrist 16.2158
rhand -28.7886 39.834
rfingers 7.12502
rthumb -2.14758 9.86503
lclavicle -2.21645e-014 -9.14409e-015
lhumerus -35.5557 19.2208 72.9667
lradius 35.1645
lwrist -16.8509
lhand 2.82992 35.6786
lfingers 7.12502
lthumb 28.298 63.5609
rfemur 5.15395 -0.211801 16.8272
rtibia 23.1314
rfoot -16.5545 -17.9464
rtoes -36.6092
lfemur -31.2232 5.73519 -9.3197
ltibia 36.2194
lfoot -10.8819 0.400835
ltoes -3.35442
189
root 10.5641 17.6405 4.29874 6.97234 -6.39928 -2.82247
lowerback 4.78048 0.524727 1.52617
upperback 1.01964 0.812218 2.15962
thorax -1.64219 0.400538 1.31213
lowerneck -17.5956 -9.72128 -14.1018
upperneck 15.555 -11.8378 10.8513
head 9.30149 -5.35868 4.33912
rclavicle -1.2921e-015 5.1684e-015
rhumerus -29.937 32.7369 -90.2974
rradius 114.922
rwrist 16.5895
rhand -28.4527 39.7594
rfingers 7.12502
rthumb -1.82312 9.78744
lclavicle -1.2921e-015 5.1684e-015
lhumerus -35.7631 19.0417 73.0336
lradius 35.5656
lwrist -16.757
lhand 1.6685 35.1374
lfingers 7.12502
lthumb 27.1875 63.1986
rfemur 4.47786 -0.916112 15.9491
rtibia 24.8339
rfoot -15.3302 -18.8675
rtoes -42.0519
lfemur -31.197 5.95121 -10.4376
ltibia 36.7745
lfoot -11.68 0.0850182
ltoes -6.30547
190
root 10.6512 17.643 4.44573 6.91126 -6.08004 -2.38074
lowerback 4.43614 0.643739 1.20755
upperback 1.36889 0.934821 2.01717
thorax -1.09539 0.463805 1.34276
lowerneck -17.9559 -10.1933 -14.0777
upperneck 15.3828 -12.4903 11.1017
head 9.41046 -5.62263 4.29802
rclavicle -4.87022e-015 3.85642e-014
rhumerus -29.8584 32.2083 -90.3043
rradius 113.29
rwrist 16.6994
rhand -27.5085 39.6612
rfingers 7.12502
rthumb -0.911167 9.68335
lclavicle -4.87022e-015 3.85642e-014
lhumerus -35.0281 19.2117 73.3658
lradius 35.7419
lwrist -16.9409
lhand 2.71595 35.1294
lfingers 7.12502
lthumb 28.1891 63.0297
rfemur 5.07113 -0.31559 15.0934
rtibia 27.0032
rfoot -18.9711 -16.9656
rtoes -30.3515
lfemur -31.014 6.03091 -11.4294
ltibia 37.1446
lfoot -12.4791 0.33918
ltoes -10.643
